<svg viewBox="0 0 330 200" xmlns="http://www.w3.org/2000/svg"><g><g><g><g><g><line x1="50" y1="169.95607426428336" x2="45" y2="169.95607426428336" style="visibility: inherit;" fill="rgb(0, 0, 0)" stroke="rgb(204, 204, 204)" stroke-width="1px"></line><line x1="50" y1="146.20193298875594" x2="45" y2="146.20193298875594" style="visibility: inherit;" fill="rgb(0, 0, 0)" stroke="rgb(204, 204, 204)" stroke-width="1px"></line><line x1="50" y1="122.44779171322853" x2="45" y2="122.44779171322853" style="visibility: inherit;" fill="rgb(0, 0, 0)" stroke="rgb(204, 204, 204)" stroke-width="1px"></line><line x1="50" y1="98.6936504377011" x2="45" y2="98.6936504377011" style="visibility: inherit;" fill="rgb(0, 0, 0)" stroke="rgb(204, 204, 204)" stroke-width="1px"></line><line x1="50" y1="74.93950916217368" x2="45" y2="74.93950916217368" style="visibility: inherit;" fill="rgb(0, 0, 0)" stroke="rgb(204, 204, 204)" stroke-width="1px"></line><line x1="50" y1="51.18536788664626" x2="45" y2="51.18536788664626" style="visibility: inherit;" fill="rgb(0, 0, 0)" stroke="rgb(204, 204, 204)" stroke-width="1px"></line><line x1="50" y1="27.43122661111883" x2="45" y2="27.43122661111883" style="visibility: inherit;" fill="rgb(0, 0, 0)" stroke="rgb(204, 204, 204)" stroke-width="1px"></line><line x1="50" y1="3.6770853355914426" x2="45" y2="3.6770853355914426" style="visibility: inherit;" fill="rgb(0, 0, 0)" stroke="rgb(204, 204, 204)" stroke-width="1px"></line></g><g transform="translate(40, 0)"><text x="0" y="169.95607426428336" dx="0em" dy="0.3em" style="text-anchor: end; visibility: inherit; font-family: &quot;Helvetica Neue&quot;, sans-serif; font-size: 12px; font-weight: 200;" fill="rgb(50, 49, 63)" stroke="none" stroke-width="1px">-0.4</text><text x="0" y="146.20193298875594" dx="0em" dy="0.3em" style="text-anchor: end; visibility: inherit; font-family: &quot;Helvetica Neue&quot;, sans-serif; font-size: 12px; font-weight: 200;" fill="rgb(50, 49, 63)" stroke="none" stroke-width="1px">-0.2</text><text x="0" y="122.44779171322853" dx="0em" dy="0.3em" style="text-anchor: end; visibility: inherit; font-family: &quot;Helvetica Neue&quot;, sans-serif; font-size: 12px; font-weight: 200;" fill="rgb(50, 49, 63)" stroke="none" stroke-width="1px">0</text><text x="0" y="98.6936504377011" dx="0em" dy="0.3em" style="text-anchor: end; visibility: inherit; font-family: &quot;Helvetica Neue&quot;, sans-serif; font-size: 12px; font-weight: 200;" fill="rgb(50, 49, 63)" stroke="none" stroke-width="1px">0.2</text><text x="0" y="74.93950916217368" dx="0em" dy="0.3em" style="text-anchor: end; visibility: inherit; font-family: &quot;Helvetica Neue&quot;, sans-serif; font-size: 12px; font-weight: 200;" fill="rgb(50, 49, 63)" stroke="none" stroke-width="1px">0.4</text><text x="0" y="51.18536788664626" dx="0em" dy="0.3em" style="text-anchor: end; visibility: inherit; font-family: &quot;Helvetica Neue&quot;, sans-serif; font-size: 12px; font-weight: 200;" fill="rgb(50, 49, 63)" stroke="none" stroke-width="1px">0.6</text><text x="0" y="27.43122661111883" dx="0em" dy="0.3em" style="text-anchor: end; visibility: inherit; font-family: &quot;Helvetica Neue&quot;, sans-serif; font-size: 12px; font-weight: 200;" fill="rgb(50, 49, 63)" stroke="none" stroke-width="1px">0.8</text><text x="0" y="3.6770853355914426" dx="0em" dy="0.3em" style="text-anchor: end; visibility: hidden; font-family: &quot;Helvetica Neue&quot;, sans-serif; font-size: 12px; font-weight: 200;" fill="rgb(50, 49, 63)" stroke="none" stroke-width="1px">1</text></g><line x1="50" y1="0" x2="50" y2="178" fill="rgb(0, 0, 0)" stroke="rgb(204, 204, 204)" stroke-width="1px"></line></g></g><g transform="translate(50, 0)" clip-path="url(#clip_0)"><clipPath id="clip_0"><rect width="280" height="178"></rect></clipPath><g><g><g><line x1="3.501963231347324" y1="0" x2="3.501963231347324" y2="178" fill="rgb(0, 0, 0)" stroke="rgb(60, 60, 60)" stroke-width="1px" opacity="0.25"></line><line x1="44.32007410752897" y1="0" x2="44.32007410752897" y2="178" fill="rgb(0, 0, 0)" stroke="rgb(60, 60, 60)" stroke-width="1px" opacity="0.25"></line><line x1="85.13818498371062" y1="0" x2="85.13818498371062" y2="178" fill="rgb(0, 0, 0)" stroke="rgb(60, 60, 60)" stroke-width="1px" opacity="0.25"></line><line x1="125.95629585989226" y1="0" x2="125.95629585989226" y2="178" fill="rgb(0, 0, 0)" stroke="rgb(60, 60, 60)" stroke-width="1px" opacity="0.25"></line><line x1="166.7744067360739" y1="0" x2="166.7744067360739" y2="178" fill="rgb(0, 0, 0)" stroke="rgb(60, 60, 60)" stroke-width="1px" opacity="0.25"></line><line x1="207.59251761225556" y1="0" x2="207.59251761225556" y2="178" fill="rgb(0, 0, 0)" stroke="rgb(60, 60, 60)" stroke-width="1px" opacity="0.25"></line><line x1="248.41062848843717" y1="0" x2="248.41062848843717" y2="178" fill="rgb(0, 0, 0)" stroke="rgb(60, 60, 60)" stroke-width="1px" opacity="0.25"></line></g><g><line x1="0" y1="169.95607426428336" x2="280" y2="169.95607426428336" fill="rgb(0, 0, 0)" stroke="rgb(60, 60, 60)" stroke-width="1px" opacity="0.25"></line><line x1="0" y1="146.20193298875594" x2="280" y2="146.20193298875594" fill="rgb(0, 0, 0)" stroke="rgb(60, 60, 60)" stroke-width="1px" opacity="0.25"></line><line x1="0" y1="122.44779171322853" x2="280" y2="122.44779171322853" fill="rgb(0, 0, 0)" stroke="rgb(60, 60, 60)" stroke-width="1px" opacity="0.25"></line><line x1="0" y1="98.6936504377011" x2="280" y2="98.6936504377011" fill="rgb(0, 0, 0)" stroke="rgb(60, 60, 60)" stroke-width="1px" opacity="0.25"></line><line x1="0" y1="74.93950916217368" x2="280" y2="74.93950916217368" fill="rgb(0, 0, 0)" stroke="rgb(60, 60, 60)" stroke-width="1px" opacity="0.25"></line><line x1="0" y1="51.18536788664626" x2="280" y2="51.18536788664626" fill="rgb(0, 0, 0)" stroke="rgb(60, 60, 60)" stroke-width="1px" opacity="0.25"></line><line x1="0" y1="27.43122661111883" x2="280" y2="27.43122661111883" fill="rgb(0, 0, 0)" stroke="rgb(60, 60, 60)" stroke-width="1px" opacity="0.25"></line><line x1="0" y1="3.6770853355914426" x2="280" y2="3.6770853355914426" fill="rgb(0, 0, 0)" stroke="rgb(60, 60, 60)" stroke-width="1px" opacity="0.25"></line></g></g></g><g><g><line x1="0" y1="122.44779171322853" x2="280" y2="122.44779171322853" fill="rgb(0, 0, 0)" stroke="rgb(153, 153, 153)" stroke-width="1.5px"></line></g></g><g><g><line x1="44.32007410752897" y1="0" x2="44.32007410752897" y2="178" fill="rgb(0, 0, 0)" stroke="rgb(153, 153, 153)" stroke-width="1.5px"></line></g></g><g><g><g><g><g><path style="fill: none;" stroke="rgb(0, 119, 187)" stroke-width="2px" d="M48.40188519514713,172.61199291383778L52.483696282765294,167.93878824840613L56.565507370383465,166.6272972855062L60.64731845800162,159.79982157200686L64.72912954561978,145.0776228720665L68.81094063323795,135.22480018417457L72.89275172085613,130.59645000745593L76.97456280847427,114.87087301361078L81.05637389609245,103.12046805735702L85.13818498371062,89.18832550834406L89.21999607132878,69.9256526099833L93.30180715894693,57.217160818715314L97.3836182465651,47.336852015374745L101.46542933418327,38.41793436205208L105.54724042180143,31.990345288537668L109.6290515094196,27.800359817307424L113.71086259703776,25.602634379351088L117.79267368465592,22.978415294878317L121.87448477227409,17.919593209080602L125.95629585989226,15.709122609261982" fill="none"></path></g><g><path style="fill: none;" stroke="rgb(51, 187, 238)" stroke-width="2px" d="M52.483696282765294,110.98260170839151L60.64731845800162,110.18029629758418L68.81094063323795,109.48937166450322L76.97456280847427,106.47340960043053L85.13818498371062,104.77055228099375L93.30180715894693,100.99443707021169L101.46542933418327,95.69986260199207L109.6290515094196,92.78639580033251L117.79267368465592,88.60825208435645L125.95629585989226,86.98409719908008L134.1199180351286,82.96829660275445L142.2835402103649,78.03532827689006L150.44716238560125,74.86511935073617L158.61078456083757,74.7211370148107L166.7744067360739,74.1705189732569L174.93802891131023,72.8602005222025L183.10165108654655,72.37412157224196L191.26527326178288,71.06885708842054L199.42889543701924,71.49859401686312L207.59251761225556,71.08578264923244" fill="none"></path></g></g></g></g><g opacity="0.2"><g><g><g><path style="fill: none;" stroke="rgb(0, 119, 187)" stroke-width="2px" d="M48.40188519514713,172.61199291383778L52.483696282765294,165.13486544914713L56.565507370383465,165.36826596112226L60.64731845800162,151.77071013293167L64.72912954561978,125.85632024942434L68.81094063323795,121.5947993906524L72.89275172085613,123.97783520114547L76.97456280847427,91.94283079104541L81.05637389609245,85.79090314554139L85.13818498371062,68.50071753068106L89.21999607132878,41.20635428789757L93.30180715894693,38.22358218293445L97.3836182465651,32.548649732879966L101.46542933418327,25.05703097023172L105.54724042180143,22.356517067939564L109.6290515094196,21.518336712843364L113.71086259703776,22.306976226167563L117.79267368465592,19.04275295711051L121.87448477227409,10.332130741011781L125.95629585989226,12.393618755302555" fill="none"></path></g><g><path style="fill: none;" stroke="rgb(51, 187, 238)" stroke-width="2px" d="M52.483696282765294,110.98260170839151L60.64731845800162,109.69891305109977L68.81094063323795,108.8260840167455L76.97456280847427,102.92663821308106L85.13818498371062,102.5473017647371L93.30180715894693,95.77071033222418L101.46542933418327,88.12853639924653L109.6290515094196,88.5385332342316L117.79267368465592,82.44630166592712L125.95629585989226,84.57241647995166L134.1199180351286,76.9810187241117L142.2835402103649,70.66272078388293L150.44716238560125,70.12015724369319L158.61078456083757,74.50544558730749L166.7744067360739,73.34523914176462L174.93802891131023,70.89564698371193L183.10165108654655,71.6452088396224L191.26527326178288,69.11129176919944L199.42889543701924,72.14313394343131L207.59251761225556,70.46660333038055" fill="none"></path></g></g></g></g></g></g><g transform="translate(50, 178)" clip-path="url(#clip_1)"><clipPath id="clip_1"><rect width="280" height="22"></rect></clipPath><g><g><line x1="3.501963231347324" y1="0" x2="3.501963231347324" y2="5" style="visibility: inherit;" fill="rgb(0, 0, 0)" stroke="rgb(204, 204, 204)" stroke-width="1px"></line><line x1="44.32007410752897" y1="0" x2="44.32007410752897" y2="5" style="visibility: inherit;" fill="rgb(0, 0, 0)" stroke="rgb(204, 204, 204)" stroke-width="1px"></line><line x1="85.13818498371062" y1="0" x2="85.13818498371062" y2="5" style="visibility: inherit;" fill="rgb(0, 0, 0)" stroke="rgb(204, 204, 204)" stroke-width="1px"></line><line x1="125.95629585989226" y1="0" x2="125.95629585989226" y2="5" style="visibility: inherit;" fill="rgb(0, 0, 0)" stroke="rgb(204, 204, 204)" stroke-width="1px"></line><line x1="166.7744067360739" y1="0" x2="166.7744067360739" y2="5" style="visibility: inherit;" fill="rgb(0, 0, 0)" stroke="rgb(204, 204, 204)" stroke-width="1px"></line><line x1="207.59251761225556" y1="0" x2="207.59251761225556" y2="5" style="visibility: inherit;" fill="rgb(0, 0, 0)" stroke="rgb(204, 204, 204)" stroke-width="1px"></line><line x1="248.41062848843717" y1="0" x2="248.41062848843717" y2="5" style="visibility: inherit;" fill="rgb(0, 0, 0)" stroke="rgb(204, 204, 204)" stroke-width="1px"></line></g><g transform="translate(0, 8)"><text x="3.501963231347324" y="0" dx="0em" dy="0.95em" style="text-anchor: middle; visibility: hidden; font-family: &quot;Helvetica Neue&quot;, sans-serif; font-size: 12px; font-weight: 200;" fill="rgb(50, 49, 63)" stroke="none" stroke-width="1px">-500k</text><text x="44.32007410752897" y="0" dx="0em" dy="0.95em" style="text-anchor: middle; visibility: inherit; font-family: &quot;Helvetica Neue&quot;, sans-serif; font-size: 12px; font-weight: 200;" fill="rgb(50, 49, 63)" stroke="none" stroke-width="1px">0</text><text x="85.13818498371062" y="0" dx="0em" dy="0.95em" style="text-anchor: middle; visibility: inherit; font-family: &quot;Helvetica Neue&quot;, sans-serif; font-size: 12px; font-weight: 200;" fill="rgb(50, 49, 63)" stroke="none" stroke-width="1px">500k</text><text x="125.95629585989226" y="0" dx="0em" dy="0.95em" style="text-anchor: middle; visibility: inherit; font-family: &quot;Helvetica Neue&quot;, sans-serif; font-size: 12px; font-weight: 200;" fill="rgb(50, 49, 63)" stroke="none" stroke-width="1px">1M</text><text x="166.7744067360739" y="0" dx="0em" dy="0.95em" style="text-anchor: middle; visibility: inherit; font-family: &quot;Helvetica Neue&quot;, sans-serif; font-size: 12px; font-weight: 200;" fill="rgb(50, 49, 63)" stroke="none" stroke-width="1px">1.5M</text><text x="207.59251761225556" y="0" dx="0em" dy="0.95em" style="text-anchor: middle; visibility: inherit; font-family: &quot;Helvetica Neue&quot;, sans-serif; font-size: 12px; font-weight: 200;" fill="rgb(50, 49, 63)" stroke="none" stroke-width="1px">2M</text><text x="248.41062848843717" y="0" dx="0em" dy="0.95em" style="text-anchor: middle; visibility: inherit; font-family: &quot;Helvetica Neue&quot;, sans-serif; font-size: 12px; font-weight: 200;" fill="rgb(50, 49, 63)" stroke="none" stroke-width="1px">2.5M</text></g><line x1="0" y1="0" x2="280" y2="0" fill="rgb(0, 0, 0)" stroke="rgb(204, 204, 204)" stroke-width="1px"></line></g></g></g></g></svg>